<svg width="13" height="12" viewBox="0 0 13 12" fill="none" xmlns="http://www.w3.org/2000/svg">
<path fill-rule="evenodd" clip-rule="evenodd" d="M0.131426 0.162141C0.318022 -0.0414189 0.634306 -0.0551703 0.837865 0.131426L12.8379 11.1314C13.0414 11.318 13.0552 11.6343 12.8686 11.8379C12.682 12.0414 12.3657 12.0552 12.1621 11.8686L0.162141 0.86858C-0.0414189 0.681984 -0.0551703 0.3657 0.131426 0.162141Z" fill="black"/>
<path fill-rule="evenodd" clip-rule="evenodd" d="M3.11777 4.29786L0.388672 9.17969C0.259766 9.41406 0.195312 9.64648 0.195312 9.87695C0.195312 10.1426 0.253906 10.3828 0.371094 10.5977C0.488281 10.8164 0.652344 10.9883 0.863281 11.1133C1.07812 11.2422 1.33203 11.3066 1.625 11.3066H10.7637L6.44952 7.35197C6.38934 7.37513 6.31827 7.38672 6.23633 7.38672C5.92383 7.38672 5.76367 7.22656 5.75586 6.90625L5.75122 6.71186L3.11777 4.29786ZM6.69932 6.90266L11.3966 11.2085C11.4649 11.1821 11.53 11.1504 11.5918 11.1133C11.8066 10.9883 11.9707 10.8164 12.084 10.5977C12.0981 10.5717 12.1115 10.5453 12.1239 10.5186L6.7358 5.57953L6.69932 6.90266ZM5.7016 4.63152L5.73468 6.01841L3.36848 3.84939L3.8699 2.95246L5.7016 4.63152ZM6.75404 4.91797L6.78711 3.71875C6.79102 3.56641 6.73828 3.43945 6.62891 3.33789C6.52344 3.23242 6.39062 3.17969 6.23047 3.17969C6.06641 3.17969 5.93164 3.23047 5.82617 3.33203C5.72461 3.43359 5.67578 3.56055 5.67969 3.71289L5.68506 3.93807L4.12061 2.50399L4.99414 0.941406C5.12695 0.703125 5.30469 0.523438 5.52734 0.402344C5.75391 0.277344 5.98828 0.214844 6.23047 0.214844C6.47266 0.214844 6.70508 0.277344 6.92773 0.402344C7.15039 0.523438 7.32812 0.703125 7.46094 0.941406L12.0723 9.17383C12.1348 9.28711 12.1816 9.40234 12.2129 9.51953C12.2441 9.63672 12.2598 9.75586 12.2598 9.87695C12.2598 9.90593 12.2591 9.9346 12.2577 9.96297L6.75404 4.91797ZM5.77344 9.16797C5.90625 9.28906 6.06055 9.34961 6.23633 9.34961C6.41211 9.34961 6.56445 9.28906 6.69336 9.16797C6.82617 9.04688 6.89258 8.89844 6.89258 8.72266C6.89258 8.54688 6.82617 8.39844 6.69336 8.27734C6.56445 8.15234 6.41211 8.08984 6.23633 8.08984C6.05664 8.08984 5.90234 8.15234 5.77344 8.27734C5.64453 8.40234 5.58008 8.55078 5.58008 8.72266C5.58008 8.89844 5.64453 9.04688 5.77344 9.16797Z" fill="black"/>
</svg>
